# xmcd
#
# Track frame offsets:
#	150
#	15432
#	25077
#	41395
#	67462
#	84799
#	102263
#	126602
#	143459
#	150257
#
# Disc length: 2434 seconds
# Revision: 0
# Processed by: cddbd v1.5.2PL0 Copyright (c) Steve Scherf et al.
# Submitted via: dBpowerAMP V12.0
#
DISCID=7309800a
DTITLE=Arthur "Big Boy" Crudup - Sunny Road
DYEAR=2013
DGENRE=Blues
TTITLE0=Sunny Road
TTITLE1=Please Don't Leave Me With the Blues
TTITLE2=Trying To Take Me For a Ride
TTITLE3=She Gives Me a Thrill
TTITLE4=Mistake I Made in L.A.
TTITLE5=The One That I Call Love
TTITLE6=I Have Called Up China
TTITLE7=I'm Leavin' Town
TTITLE8=Studio Chatter With Bob Koester
TTITLE9=All I Got is Gone
EXTD=
EXTT0=
EXTT1=
EXTT2=
EXTT3=
EXTT4=
EXTT5=
EXTT6=
EXTT7=
EXTT8=
EXTT9=
PLAYORDER=
